<svg id="Layer_1" data-name="Layer 1" xmlns="http://www.w3.org/2000/svg" viewBox="0 0 309.93 288"><defs><style>.cls-1{fill:#111921;}</style></defs><rect class="cls-1" x="47.07" y="186.67" width="212.42" height="23.38"/><polygon class="cls-1" points="153.63 141.91 47.07 35.35 47.07 68.42 153.63 174.98 260.19 68.42 260.19 35.35 153.63 141.91"/><rect class="cls-1" x="47.07" y="233.93" width="5.24" height="21.95"/><polygon class="cls-1" points="66.26 233.94 59.89 233.94 52.74 243.1 62.05 255.88 68.24 255.88 58.37 243.17 66.26 233.94"/><path class="cls-1" d="M80.65,241.65l.49-3.72h6.09l1-4H76.93l-1.38,11,.53.46c4.11-.89,8-.21,8,3.33,0,1.8-1.2,3.39-3.79,3.39a9,9,0,0,1-4.92-1.87l-2.08,3.64a13.27,13.27,0,0,0,7.18,2.31c5.81,0,9-2.94,9-7.58,0-4.81-3.26-7.33-8.74-7"/><path class="cls-1" d="M125.48,251.39a10.63,10.63,0,0,1-3.4.7c-3.65,0-6.73-2.55-6.73-7.25s3.26-7.15,7-7.15a12.14,12.14,0,0,1,6.72,2.23l.36-4.22a14.52,14.52,0,0,0-7.47-2c-6.66,0-11.83,3.86-11.83,11.18s5,11.26,11.76,11.26a17.84,17.84,0,0,0,8.85-2.69v-9.67h-5.24Z"/><polygon class="cls-1" points="145.67 233.94 140.43 233.94 140.43 255.88 153 255.88 153.95 251.81 145.67 251.81 145.67 233.94"/><path class="cls-1" d="M171.63,252c-3.44,0-6.27-2.55-6.27-7.15s2.83-7.15,6.27-7.15,6.26,2.66,6.26,7.19S175.1,252,171.63,252m0-18.37c-6.44,0-11.58,4.11-11.58,11.22s5.14,11.26,11.58,11.26,11.61-4.11,11.61-11.22-5.17-11.26-11.61-11.26"/><path class="cls-1" d="M198.51,251.92h-1v-6.13h1c3.58,0,4.53,1.42,4.53,3.15-.07,1.88-.95,3-4.53,3m-1-14.2c3.05,0,4.15.57,4.15,2.23,0,1.45-.89,2.16-4.15,2.16Zm6.34,5.81a4,4,0,0,0,2.58-3.86c0-4.18-3.6-5.7-8.92-5.7h-5.23v21.91h6.05c6.12,0,9.91-1.8,9.91-6.76a5.24,5.24,0,0,0-4.39-5.59"/><path class="cls-1" d="M223.69,248.62l2.87-6.37,2.87,6.37Zm2.45-15.25-11.22,22.51h5.69l1.59-3.54h8.72l1.66,3.54h5.63L227,233.37Z"/><polygon class="cls-1" points="251.22 233.94 245.98 233.94 245.98 255.88 258.55 255.88 259.5 251.81 251.22 251.81 251.22 233.94"/></svg>